<?xml version="1.0" encoding="UTF-8" standalone="no"?>
<!-- Created with Inkscape (http://www.inkscape.org/) -->

<svg
   version="1.1"
   id="svg9"
   width="880"
   height="880"
   viewBox="0 0 880 880"
   sodipodi:docname="sunrise-from-space-publicdomainvectors.org.svg"
   inkscape:version="1.2 (dc2aedaf03, 2022-05-15)"
   xmlns:inkscape="http://www.inkscape.org/namespaces/inkscape"
   xmlns:sodipodi="http://sodipodi.sourceforge.net/DTD/sodipodi-0.dtd"
   xmlns="http://www.w3.org/2000/svg"
   xmlns:svg="http://www.w3.org/2000/svg">
  <defs
     id="defs13">
    <clipPath
       clipPathUnits="userSpaceOnUse"
       id="clipPath27">
      <path
         d="M 0,660 H 660 V 0 H 0 Z"
         id="path25" />
    </clipPath>
  </defs>
  <sodipodi:namedview
     id="namedview11"
     pagecolor="#ffffff"
     bordercolor="#000000"
     borderopacity="0.25"
     inkscape:showpageshadow="2"
     inkscape:pageopacity="0.0"
     inkscape:pagecheckerboard="0"
     inkscape:deskcolor="#d1d1d1"
     showgrid="false"
     inkscape:zoom="0.925"
     inkscape:cx="440"
     inkscape:cy="440"
     inkscape:window-width="1920"
     inkscape:window-height="1017"
     inkscape:window-x="-8"
     inkscape:window-y="-8"
     inkscape:window-maximized="1"
     inkscape:current-layer="g17">
    <inkscape:page
       x="0"
       y="0"
       id="page15"
       width="880"
       height="880" />
  </sodipodi:namedview>
  <g
     id="g17"
     inkscape:groupmode="layer"
     inkscape:label="Page 1"
     transform="matrix(1.3333333,0,0,-1.3333333,0,880)">
    <path
       d="M 0,0 H 660 V 660 H 0 Z"
       style="fill:#1a1a1a;fill-opacity:1;fill-rule:nonzero;stroke:none"
       id="path19" />
    <g
       id="g21">
      <g
         id="g23"
         clip-path="url(#clipPath27)">
        <g
           id="g29"
           transform="translate(370.042,494.2554)">
          <path
             d="m 0,0 c 2.788,-11.557 4.274,-23.622 4.274,-36.034 0,-84.58 -68.563,-153.144 -153.143,-153.144 -22.643,0 -44.136,4.92 -63.476,13.739 12.661,99.164 97.362,175.815 199.969,175.815 C -8.221,0.376 -4.095,0.247 0,0"
             style="fill:#262416;fill-opacity:1;fill-rule:evenodd;stroke:none"
             id="path31" />
        </g>
        <g
           id="g33"
           transform="translate(221.1729,611.3643)">
          <path
             d="m 0,0 c 68.537,0 126.554,-45.022 146.097,-107.103 -7.371,0.817 -14.861,1.238 -22.45,1.238 -103.977,0 -189.557,-78.717 -200.426,-179.807 -45.659,26.509 -76.364,75.931 -76.364,132.529 C -153.143,-68.564 -84.579,0 0,0"
             style="fill:#302e1c;fill-opacity:1;fill-rule:evenodd;stroke:none"
             id="path35" />
        </g>
        <g
           id="g37"
           transform="translate(341.4727,493.9829)">
          <path
             d="m 0,0 c 3.363,-11.335 5.181,-23.335 5.181,-35.762 0,-69.301 -56.18,-125.479 -125.481,-125.479 -20.859,0 -40.527,5.097 -57.835,14.102 C -155.972,-66.939 -85.503,-6.796 0,0"
             style="fill:#3b3928;fill-opacity:1;fill-rule:evenodd;stroke:none"
             id="path39" />
        </g>
        <g
           id="g41"
           transform="translate(221.1729,583.7002)">
          <path
             d="m 0,0 c 52.63,0 97.684,-32.404 116.317,-78.347 -90.426,-3.234 -165.675,-66.013 -187.721,-150.317 -32.673,22.652 -54.075,60.417 -54.075,103.185 C -125.479,-56.179 -69.3,0 0,0"
             style="fill:#66634c;fill-opacity:1;fill-rule:evenodd;stroke:none"
             id="path43" />
        </g>
        <g
           id="g45"
           transform="translate(313.7676,489.8242)">
          <path
             d="m 0,0 c 3.384,-9.914 5.22,-20.543 5.22,-31.603 0,-54.022 -43.792,-97.814 -97.815,-97.814 -17.647,0 -34.203,4.675 -48.498,12.853 C -115.721,-58.151 -63.501,-14.103 0,0"
             style="fill:#66644e;fill-opacity:1;fill-rule:evenodd;stroke:none"
             id="path47" />
        </g>
        <g
           id="g49"
           transform="translate(221.1729,556.0352)">
          <path
             d="M 0,0 C 38.189,0 71.262,-21.887 87.369,-53.798 19.87,-66.065 -35.915,-111.937 -62.019,-173.453 c -21.853,17.938 -35.794,45.159 -35.794,75.639 C -97.813,-43.793 -54.021,0 0,0"
             style="fill:#b0ad99;fill-opacity:1;fill-rule:evenodd;stroke:none"
             id="path51" />
        </g>
        <g
           id="g53"
           transform="translate(287.2002,481.9624)">
          <path
             d="m 0,0 c 2.666,-7.416 4.123,-15.408 4.123,-23.741 0,-38.743 -31.408,-70.149 -70.15,-70.149 -13.055,0 -25.276,3.571 -35.744,9.783 C -78.403,-45.8 -42.613,-15.9 0,0"
             style="fill:#424033;fill-opacity:1;fill-rule:evenodd;stroke:none"
             id="path55" />
        </g>
        <g
           id="g57"
           transform="translate(221.1729,528.3706)">
          <path
             d="M 0,0 C 25.202,0 47.294,-13.292 59.664,-33.244 13.941,-48.536 -24.48,-79.765 -49.005,-120.335 -62.049,-107.599 -70.149,-89.821 -70.149,-70.149 -70.149,-31.407 -38.742,0 0,0"
             style="fill:#d3d0bd;fill-opacity:1;fill-rule:evenodd;stroke:none"
             id="path59" />
        </g>
        <g
           id="g61"
           transform="translate(344.8203,505.4995)">
          <path
             d="m 0,0 c 52.629,0 100.541,-20.174 136.443,-53.201 -34.135,26.528 -77.02,42.333 -123.597,42.333 -111.344,0 -201.605,-90.26 -201.605,-201.603 0,-58.714 25.107,-111.557 65.16,-148.401 -47.461,36.883 -78.004,94.504 -78.004,159.269 C -201.603,-90.261 -111.342,0 0,0"
             style="fill:#fdfbeb;fill-opacity:1;fill-rule:evenodd;stroke:none"
             id="path63" />
        </g>
        <g
           id="g65"
           transform="translate(367.2695,504.2612)">
          <path
             d="m 0,0 c 1.035,-3.289 1.959,-6.626 2.772,-10.006 -4.094,0.248 -8.22,0.377 -12.376,0.377 -102.606,0 -187.307,-76.652 -199.969,-175.816 -4.559,2.079 -8.997,4.377 -13.303,6.876 10.869,101.09 96.45,179.807 200.427,179.807 C -14.86,1.238 -7.37,0.817 0,0"
             style="fill:#c9c6a7;fill-opacity:1;fill-rule:evenodd;stroke:none"
             id="path67" />
        </g>
        <g
           id="g69"
           transform="translate(341.4727,493.9829)">
          <path
             d="m 0,0 c -85.503,-6.796 -155.972,-66.939 -178.135,-147.139 -4.707,2.45 -9.236,5.189 -13.569,8.193 C -169.658,-54.643 -94.409,8.136 -3.982,11.37 -2.48,7.665 -1.148,3.872 0,0"
             style="fill:#e0decc;fill-opacity:1;fill-rule:evenodd;stroke:none"
             id="path71" />
        </g>
        <g
           id="g73"
           transform="translate(308.5415,502.2373)">
          <path
             d="m 0,0 c 2.015,-3.99 3.766,-8.134 5.226,-12.413 -63.501,-14.103 -115.721,-58.151 -141.093,-116.564 -4.774,2.732 -9.295,5.853 -13.521,9.322 C -123.283,-58.139 -67.499,-12.267 0,0"
             style="fill:#f0eedf;fill-opacity:1;fill-rule:evenodd;stroke:none"
             id="path75" />
        </g>
        <g
           id="g77"
           transform="translate(280.8369,495.1265)">
          <path
             d="m 0,0 c 2.555,-4.124 4.696,-8.53 6.363,-13.164 -42.613,-15.9 -78.403,-45.8 -101.771,-84.107 -4.823,2.861 -9.274,6.285 -13.261,10.18 C -84.143,-46.521 -45.723,-15.292 0,0"
             style="fill:#ffffff;fill-opacity:1;fill-rule:evenodd;stroke:none"
             id="path79" />
        </g>
        <g
           id="g81"
           transform="translate(260.3159,469.5991)">
          <path
             d="m 0,0 c 0.858,-3.323 1.315,-6.807 1.315,-10.397 0,-22.889 -18.556,-41.445 -41.444,-41.445 -6.334,0 -12.336,1.423 -17.704,3.964 C -41.77,-28.533 -22.162,-12.244 0,0"
             style="fill:#69675c;fill-opacity:1;fill-rule:evenodd;stroke:none"
             id="path83" />
        </g>
        <g
           id="g85"
           transform="translate(220.187,500.646)">
          <path
             d="M 0,0 C 13.712,0 25.87,-6.662 33.412,-16.924 8.447,-29.613 -13.52,-47.344 -31.15,-68.779 c -6.408,7.296 -10.295,16.86 -10.295,27.335 C -41.445,-18.555 -22.889,0 0,0"
             style="fill:#ffffff;fill-opacity:1;fill-rule:evenodd;stroke:none"
             id="path87" />
        </g>
        <g
           id="g89"
           transform="translate(553.8984,530.0078)">
          <path
             d="M 0,0 0.87,-2.835 3.703,-3.705 0.87,-4.576 0,-7.41 l -0.871,2.834 -2.834,0.871 2.834,0.87 z"
             style="fill:#ffffff;fill-opacity:1;fill-rule:evenodd;stroke:none"
             id="path91" />
        </g>
        <g
           id="g93"
           transform="translate(563.0371,436.6401)">
          <path
             d="M 0,0 1.046,-3.402 4.447,-4.446 1.046,-5.491 0,-8.892 l -1.045,3.401 -3.401,1.045 3.401,1.044 z"
             style="fill:#ffffff;fill-opacity:1;fill-rule:evenodd;stroke:none"
             id="path95" />
        </g>
        <g
           id="g97"
           transform="translate(616.2129,632.0938)">
          <path
             d="M 0,0 1.161,-3.779 4.938,-4.94 1.161,-6.101 0,-9.879 l -1.161,3.778 -3.779,1.161 3.779,1.161 z"
             style="fill:#ffffff;fill-opacity:1;fill-rule:evenodd;stroke:none"
             id="path99" />
        </g>
        <g
           id="g101"
           transform="translate(610.9561,367.9731)">
          <path
             d="M 0,0 2.204,-7.181 9.387,-9.387 2.204,-11.592 0,-18.773 l -2.206,7.181 -7.181,2.205 7.181,2.206 z"
             style="fill:#ffffff;fill-opacity:1;fill-rule:evenodd;stroke:none"
             id="path103" />
        </g>
        <g
           id="g105"
           transform="translate(365.4326,641.1611)">
          <path
             d="M 0,0 1.976,-6.425 8.398,-8.398 1.976,-10.372 0,-16.797 l -1.973,6.425 -6.424,1.974 6.424,1.973 z"
             style="fill:#ffffff;fill-opacity:1;fill-rule:evenodd;stroke:none"
             id="path107" />
        </g>
        <g
           id="g109"
           transform="translate(524.0107,628.3164)">
          <path
             d="m 0,0 2.09,-6.802 6.803,-2.09 -6.803,-2.09 -2.09,-6.802 -2.09,6.802 -6.802,2.09 6.802,2.09 z"
             style="fill:#ffffff;fill-opacity:1;fill-rule:evenodd;stroke:none"
             id="path111" />
        </g>
        <g
           id="g113"
           transform="translate(421.2568,599.6641)">
          <path
             d="M 0,0 2.322,-7.559 9.88,-9.88 2.322,-12.203 0,-19.761 l -2.322,7.558 -7.558,2.323 7.558,2.321 z"
             style="fill:#ffffff;fill-opacity:1;fill-rule:evenodd;stroke:none"
             id="path115" />
        </g>
        <g
           id="g117"
           transform="translate(481.5254,514.6938)">
          <path
             d="m 0,0 2.089,-6.802 6.804,-2.09 -6.804,-2.09 -2.089,-6.802 -2.09,6.802 -6.803,2.09 6.803,2.09 z"
             style="fill:#ffffff;fill-opacity:1;fill-rule:evenodd;stroke:none"
             id="path119" />
        </g>
        <g
           id="g121"
           transform="translate(63.5918,305.2334)">
          <path
             d="M 0,0 3.716,-12.094 15.809,-15.809 3.716,-19.523 0,-31.617 l -3.715,12.094 -12.094,3.714 12.094,3.715 z"
             style="fill:#ffffff;fill-opacity:1;fill-rule:evenodd;stroke:none"
             id="path123" />
        </g>
        <g
           id="g125"
           transform="translate(74.4609,151.1016)">
          <path
             d="m 0,0 2.554,-8.314 8.314,-2.554 -8.314,-2.554 -2.554,-8.313 -2.554,8.313 -8.314,2.554 8.314,2.554 z"
             style="fill:#ffffff;fill-opacity:1;fill-rule:evenodd;stroke:none"
             id="path127" />
        </g>
        <g
           id="g129"
           transform="translate(211.7363,86.4443)">
          <path
             d="M 0,0 2.091,-6.805 8.893,-8.894 2.091,-10.983 0,-17.786 l -2.089,6.803 -6.802,2.089 6.802,2.089 z"
             style="fill:#ffffff;fill-opacity:1;fill-rule:evenodd;stroke:none"
             id="path131" />
        </g>
        <g
           id="g133"
           transform="translate(547.5176,69.3848)">
          <path
             d="m 0,0 2.554,-8.314 8.313,-2.553 -8.313,-2.556 -2.554,-8.313 -2.556,8.313 -8.311,2.556 8.311,2.553 z"
             style="fill:#ffffff;fill-opacity:1;fill-rule:evenodd;stroke:none"
             id="path135" />
        </g>
        <g
           id="g137"
           transform="translate(94.2207,615.4722)">
          <path
             d="M 0,0 1.626,-5.291 6.917,-6.917 1.626,-8.542 0,-13.832 l -1.625,5.29 -5.29,1.625 5.29,1.626 z"
             style="fill:#ffffff;fill-opacity:1;fill-rule:evenodd;stroke:none"
             id="path139" />
        </g>
        <g
           id="g141"
           transform="translate(617.1748,229.4482)">
          <path
             d="M 0,0 1.394,-4.535 5.929,-5.929 1.394,-7.323 0,-11.856 l -1.393,4.533 -4.535,1.394 4.535,1.394 z"
             style="fill:#ffffff;fill-opacity:1;fill-rule:evenodd;stroke:none"
             id="path143" />
        </g>
        <g
           id="g145"
           transform="translate(250.8184,53.2861)">
          <path
             d="m 0,0 2.554,-8.313 8.314,-2.556 -8.314,-2.554 -2.554,-8.313 -2.555,8.313 -8.314,2.554 8.314,2.556 z"
             style="fill:#fff07f;fill-opacity:1;fill-rule:evenodd;stroke:none"
             id="path147" />
        </g>
        <g
           id="g149"
           transform="translate(116.4473,273.6152)">
          <path
             d="M 0,0 2.09,-6.803 8.892,-8.893 2.09,-10.982 0,-17.784 l -2.09,6.802 -6.802,2.089 6.802,2.09 z"
             style="fill:#fff07f;fill-opacity:1;fill-rule:evenodd;stroke:none"
             id="path151" />
        </g>
        <g
           id="g153"
           transform="translate(42.3457,69.0938)">
          <path
             d="M 0,0 1.857,-6.046 7.904,-7.903 1.857,-9.761 0,-15.808 l -1.857,6.047 -6.048,1.858 6.048,1.857 z"
             style="fill:#fff07f;fill-opacity:1;fill-rule:evenodd;stroke:none"
             id="path155" />
        </g>
        <g
           id="g157"
           transform="translate(129.7856,55.2607)">
          <path
             d="M 0,0 1.508,-4.912 6.422,-6.421 1.508,-7.931 0,-12.844 l -1.509,4.913 -4.914,1.51 4.914,1.509 z"
             style="fill:#fff07f;fill-opacity:1;fill-rule:evenodd;stroke:none"
             id="path159" />
        </g>
        <g
           id="g161"
           transform="translate(129.291,172.8359)">
          <path
             d="M 0,0 0.929,-3.022 3.952,-3.952 0.929,-4.88 0,-7.903 l -0.929,3.023 -3.023,0.928 3.023,0.93 z"
             style="fill:#fff07f;fill-opacity:1;fill-rule:evenodd;stroke:none"
             id="path163" />
        </g>
        <g
           id="g165"
           transform="translate(620.3379,308.1953)">
          <path
             d="M 0,0 1.161,-3.778 4.939,-4.939 1.161,-6.101 0,-9.88 l -1.161,3.779 -3.779,1.162 3.779,1.161 z"
             style="fill:#fff07f;fill-opacity:1;fill-rule:evenodd;stroke:none"
             id="path167" />
        </g>
        <g
           id="g169"
           transform="translate(606.5059,546.3091)">
          <path
             d="M 0,0 1.626,-5.29 6.917,-6.917 1.626,-8.542 0,-13.832 l -1.625,5.29 -5.291,1.625 5.291,1.627 z"
             style="fill:#fff07f;fill-opacity:1;fill-rule:evenodd;stroke:none"
             id="path171" />
        </g>
        <g
           id="g173"
           transform="translate(489.4248,558.165)">
          <path
             d="M 0,0 1.393,-4.535 5.928,-5.928 1.393,-7.322 0,-11.856 l -1.395,4.534 -4.535,1.394 4.535,1.393 z"
             style="fill:#fff07f;fill-opacity:1;fill-rule:evenodd;stroke:none"
             id="path175" />
        </g>
      </g>
    </g>
  </g>
</svg>
